<?xml version="1.0" encoding="iso-8859-1"?>
<!-- Uploaded to: SVG Repo, www.svgrepo.com, Generator: SVG Repo Mixer Tools -->
<svg fill="#000000" height="800px" width="800px" version="1.1" id="Layer_1" xmlns="http://www.w3.org/2000/svg" xmlns:xlink="http://www.w3.org/1999/xlink" 
	 viewBox="0 0 511.999 511.999" xml:space="preserve">
<g>
	<g>
		<path d="M409.998,33.014h-6.325V8.057c0-4.45-3.607-8.057-8.057-8.057h-31.399c-4.45,0-8.057,3.607-8.057,8.057v24.956H208.184
			c-4.45,0-8.057,3.607-8.057,8.057c0,4.45,3.607,8.057,8.057,8.057h156.032h31.399h6.325v88.374h-6.325h-31.399H147.782h-31.399
			h-6.325V49.128h6.325h31.399h28.174c4.45,0,8.057-3.607,8.057-8.057c0-4.45-3.607-8.057-8.057-8.057h-20.117V8.057
			c0-4.45-3.607-8.057-8.057-8.057h-31.399c-4.45,0-8.057,3.607-8.057,8.057v24.956h-6.325c-4.45,0-8.057,3.607-8.057,8.057v104.488
			c0,4.45,3.607,8.057,8.057,8.057h6.325v5.236c-3.371,0.964-5.842,4.061-5.842,7.741v123.65c0,4.45,3.607,8.057,8.057,8.057h10.486
			l93.394,90.052L102.066,498.18c-2.342,2.289-3.066,5.77-1.829,8.803c1.237,3.034,4.185,5.016,7.461,5.016h58.39
			c2.086,0,4.091-0.809,5.593-2.257l84.318-81.3l84.319,81.3c1.502,1.448,3.506,2.257,5.593,2.257h58.389
			c3.276,0,6.224-1.983,7.461-5.016c1.237-3.033,0.513-6.513-1.83-8.803l-55.17-53.929c-3.182-3.11-8.283-3.053-11.394,0.13
			c-3.111,3.183-3.052,8.283,0.13,11.394l41.033,40.109h-35.368l-81.554-78.636l18.364-17.705l34.485,33.709
			c3.181,3.11,8.283,3.053,11.394-0.13c3.111-3.182,3.052-8.283-0.13-11.394l-34.144-33.376l93.394-90.052h10.487
			c4.45,0,8.057-3.607,8.057-8.057v-123.65c0-3.68-2.471-6.778-5.842-7.741v-5.236h6.325c4.45,0,8.057-3.607,8.057-8.057V41.071
			C418.055,36.621,414.448,33.014,409.998,33.014z M387.557,33.014h-15.285V16.114h15.285V33.014z M124.44,16.114h15.285v16.899
			H124.44V16.114z M372.273,153.616h15.285v4.92h-15.285V153.616z M155.839,153.616h200.319v5.236
			c-3.371,0.964-5.842,4.061-5.842,7.741v31.667h-25.711c-4.45,0-8.057,3.607-8.057,8.057s3.607,8.057,8.057,8.057h25.711v40.57
			H161.681v-40.57h130.696c4.45,0,8.057-3.607,8.057-8.057s-3.607-8.057-8.057-8.057H161.681v-31.667
			c0-3.68-2.471-6.778-5.842-7.741V153.616z M185.681,282.187h-23.998v-11.127h188.635v11.127h-23.999H185.681z M306.548,298.301
			l-50.55,49.412l-50.55-49.412H306.548z M124.44,153.616h15.285v4.92H124.44V153.616z M118.598,282.187V174.65h26.969v107.536
			H118.598z M144.244,298.301h38.153l62.076,60.679l-18.522,18.105L144.244,298.301z M162.836,495.886h-35.368l202.134-197.584
			h38.153L162.836,495.886z M393.399,282.187h-26.969V174.65h26.969V282.187z"/>
	</g>
</g>
</svg>